<?xml version="1.0" encoding="UTF-8" standalone="no"?>
<!DOCTYPE svg PUBLIC "-//W3C//DTD SVG 1.1//EN" "http://www.w3.org/Graphics/SVG/1.1/DTD/svg11.dtd">
<svg width="100%" height="100%" viewBox="0 0 16 80" version="1.1" xmlns="http://www.w3.org/2000/svg" xmlns:xlink="http://www.w3.org/1999/xlink" xml:space="preserve" xmlns:serif="http://www.serif.com/" style="fill-rule:evenodd;clip-rule:evenodd;stroke-linejoin:round;stroke-miterlimit:2;">
    <g id="Layer2">
        <g>
            <path id="_-Rectangle-" serif:id="(Rectangle)" d="M8,5.879C8,5.879 5.544,3.422 4.535,2.414C4.301,2.18 3.921,2.18 3.687,2.414C3.317,2.784 2.784,3.317 2.414,3.687C2.18,3.921 2.18,4.301 2.414,4.535C3.422,5.544 5.879,8 5.879,8C5.879,8 3.422,10.456 2.414,11.465C2.18,11.699 2.18,12.079 2.414,12.313C2.784,12.683 3.317,13.216 3.687,13.586C3.921,13.82 4.301,13.82 4.535,13.586C5.544,12.578 8,10.121 8,10.121C8,10.121 10.456,12.578 11.465,13.586C11.699,13.82 12.079,13.82 12.313,13.586C12.683,13.216 13.216,12.683 13.586,12.313C13.82,12.079 13.82,11.699 13.586,11.465C12.578,10.456 10.121,8 10.121,8C10.121,8 12.578,5.544 13.586,4.535C13.82,4.301 13.82,3.921 13.586,3.687C13.216,3.317 12.683,2.784 12.313,2.414C12.079,2.18 11.699,2.18 11.465,2.414C10.456,3.422 8,5.879 8,5.879Z" style="fill:white;"/>
        </g>
        <g transform="matrix(1,0,0,1,-0.25,-0.103553)">
            <path d="M6.808,29.889C6.808,29.889 4.635,27.717 3.696,26.778C3.462,26.544 3.082,26.544 2.848,26.778C2.478,27.148 1.945,27.681 1.575,28.051C1.341,28.285 1.341,28.665 1.575,28.899C2.54,29.865 4.91,32.234 6.101,33.425C6.288,33.612 6.542,33.718 6.808,33.718C7.073,33.718 7.327,33.612 7.515,33.425C9.217,31.722 13.504,27.435 14.869,26.071C15.103,25.836 15.103,25.457 14.869,25.222C14.499,24.852 13.966,24.319 13.596,23.949C13.362,23.715 12.982,23.715 12.747,23.949C11.324,25.373 6.808,29.889 6.808,29.889Z" style="fill:white;"/>
        </g>
        <g transform="matrix(0.8,0,0,0.8,1.6,-0.8)">
            <g transform="matrix(1.25,0,-0.292137,1.1717,11.8119,6.73225)">
                <path d="M9.461,51.841C9.298,51.841 9.128,51.762 9,51.626C8.872,51.489 8.8,51.312 8.804,51.143C8.831,50.024 8.885,47.767 8.93,45.913C8.944,45.34 8.645,44.739 8.154,44.349C7.662,43.96 7.058,43.846 6.583,44.053C5.928,44.338 5.234,44.64 4.634,44.902C4.491,44.965 4.433,45.137 4.498,45.312C4.562,45.487 4.73,45.614 4.897,45.614C5.055,45.614 5.207,45.614 5.344,45.614C5.505,45.614 5.672,45.691 5.799,45.824C5.926,45.957 6,46.131 6,46.298C6,47.536 6,50.219 6,52.373C6,52.968 6.33,53.582 6.851,53.96C7.372,54.337 7.995,54.413 8.459,54.155C9.446,53.606 10.541,52.997 11.36,52.542C11.492,52.469 11.537,52.297 11.468,52.129C11.399,51.961 11.236,51.841 11.074,51.841C10.513,51.841 9.908,51.841 9.461,51.841Z" style="fill:white;"/>
            </g>
            <g transform="matrix(1,0,0,1,-21.5,1)">
                <circle cx="29.5" cy="52.5" r="2.5" style="fill:white;"/>
            </g>
        </g>
        <g>
            <g transform="matrix(1,0,0,1,-1,-1.60782e-10)">
                <circle cx="9" cy="74" r="2" style="fill:white;"/>
            </g>
            <path d="M3,64.984C3.009,62.231 5.246,60 8,60C10.76,60 13,62.24 13,65C13,67.417 11.281,69.436 9,69.9L9,70.508C9,70.78 8.78,71 8.508,71C8.199,71 7.801,71 7.492,71C7.22,71 7,70.78 7,70.508C7,70.1 7,69.506 7,68.999C7,68.447 7.447,68 7.999,68C8,68 8,68 8,68C9.656,68 11,66.656 11,65C11,63.344 9.656,62 8,62C6.344,62 5,63.344 5,65L5,65.004C5,65.268 4.895,65.522 4.708,65.708C4.522,65.895 4.268,66 4.004,66C4.001,66 3.999,66 3.996,66C3.732,66 3.478,65.895 3.292,65.708C3.105,65.522 3,65.268 3,65.004L3,64.984Z" style="fill:white;"/>
        </g>
    </g>
</svg>
