<?xml version="1.0" encoding="UTF-8" standalone="no"?>
<!DOCTYPE svg PUBLIC "-//W3C//DTD SVG 1.1//EN" "http://www.w3.org/Graphics/SVG/1.1/DTD/svg11.dtd">
<svg width="100%" height="100%" viewBox="0 0 16 16" version="1.1" xmlns="http://www.w3.org/2000/svg" xmlns:xlink="http://www.w3.org/1999/xlink" xml:space="preserve" xmlns:serif="http://www.serif.com/" style="fill-rule:evenodd;clip-rule:evenodd;stroke-linejoin:round;stroke-miterlimit:2;">
    <g transform="matrix(0.707107,-0.707107,0.707107,0.707107,-2.6066,6.70711)">
        <path d="M2.8,3C2.358,3 2,3.358 2,3.8C2,5.333 2,8.667 2,10.2C2,10.642 2.358,11 2.8,11C4.982,11 11.018,11 13.2,11C13.642,11 14,10.642 14,10.2C14,9.767 14,9.233 14,8.8C14,8.358 13.642,8 13.2,8C11.381,8 6.978,8 5.496,8C5.222,8 5,7.778 5,7.504C5,6.638 5,4.844 5,3.8C5,3.358 4.642,3 4.2,3C3.767,3 3.233,3 2.8,3Z" style="fill:white;"/>
    </g>
</svg>
