<?xml version="1.0" encoding="UTF-8" standalone="no"?>
<!-- Generator: Adobe Illustrator 12.0.0, SVG Export Plug-In . SVG Version: 6.00 Build 51448)  -->

<svg
   xmlns:dc="http://purl.org/dc/elements/1.1/"
   xmlns:cc="http://creativecommons.org/ns#"
   xmlns:rdf="http://www.w3.org/1999/02/22-rdf-syntax-ns#"
   xmlns:svg="http://www.w3.org/2000/svg"
   xmlns="http://www.w3.org/2000/svg"
   xmlns:sodipodi="http://sodipodi.sourceforge.net/DTD/sodipodi-0.dtd"
   xmlns:inkscape="http://www.inkscape.org/namespaces/inkscape"
   version="1.1"
   id="Layer_1"
   width="400"
   height="132.66687"
   viewBox="0 0 399.99998 132.66686"
   overflow="visible"
   enable-background="new 0 0 40.212 13.336"
   xml:space="preserve"
   sodipodi:docname="TAITRA_Official_Trademark.svg"
   style="overflow:visible"
   inkscape:version="0.92.4 (5da689c313, 2019-01-14)"><metadata
   id="metadata840"><rdf:RDF><cc:Work
       rdf:about=""><dc:format>image/svg+xml</dc:format><dc:type
         rdf:resource="http://purl.org/dc/dcmitype/StillImage" /><dc:title></dc:title></cc:Work></rdf:RDF></metadata><defs
   id="defs838" /><sodipodi:namedview
   pagecolor="#ffffff"
   bordercolor="#666666"
   borderopacity="1"
   objecttolerance="10"
   gridtolerance="10"
   guidetolerance="10"
   inkscape:pageopacity="0"
   inkscape:pageshadow="2"
   inkscape:window-width="1600"
   inkscape:window-height="837"
   id="namedview836"
   showgrid="false"
   fit-margin-top="0"
   fit-margin-left="0"
   fit-margin-right="0"
   fit-margin-bottom="0"
   inkscape:zoom="1.0957549"
   inkscape:cx="124.83371"
   inkscape:cy="23.626339"
   inkscape:window-x="-8"
   inkscape:window-y="-8"
   inkscape:window-maximized="1"
   inkscape:current-layer="Layer_1" />
<path
   d="M 133.18412,51.109126 112.70268,31.184725 c -0.46753,1.293147 -1.3031,2.715608 -2.28788,3.571074 -2.99413,3.501442 -8.7536,3.501442 -12.46394,0 -3.521336,-3.18313 -3.521336,-8.942605 0,-12.424152 0.994728,-0.964886 2.67582,-1.8303 4.05849,-2.3774 L 81.508008,0 c -0.91515,0.82563 -2.248086,1.64131 -3.103552,2.71561 -14.244504,14.18482 -14.244504,37.779769 0,51.616435 14.234557,14.204715 37.471404,14.652342 52.113794,0 0.85547,-0.925097 1.76067,-1.850194 2.66587,-3.222919"
   id="path815"
   inkscape:connector-curvature="0"
   style="fill:#1a3476;stroke-width:9.94727898" />
<path
   d="M 0,51.109126 20.043768,31.184725 c 0.477469,1.293147 1.303094,2.715608 2.357505,3.571074 3.461653,3.501442 9.231076,3.501442 12.792202,0 3.163234,-3.18313 3.163234,-8.942605 0,-12.424152 -1.322989,-0.964886 -2.695713,-1.820352 -3.939123,-2.3774 L 51.198647,0 c 1.402567,0.82563 2.70566,1.64131 3.610863,2.71561 14.304187,14.18482 14.304187,37.779769 0,51.616435 -14.164926,14.204715 -37.909082,14.652342 -52.1635337,0 C 1.7905103,53.794891 0.89525515,52.481851 0,51.109126"
   id="path817"
   inkscape:connector-curvature="0"
   style="fill:#1a3476;stroke-width:9.94727898" />
<path
   d="m 133.18412,81.458276 -20.48144,20.003974 c -0.46753,-1.2633 -1.3031,-2.566394 -2.28788,-3.521332 -2.99413,-3.531285 -8.7536,-3.531285 -12.46394,0 -2.994131,3.083652 -3.521336,8.962502 0,12.453992 0.994728,0.98478 2.67582,1.73083 4.05849,2.24809 l -20.501342,20.02387 c -0.91515,-0.91515 -2.248086,-1.78056 -3.103552,-2.65592 -14.244504,-14.2843 -14.244504,-37.889191 0,-52.083959 14.234557,-14.304187 37.471404,-14.304187 52.113794,0.437681 0.52721,0.467522 1.76067,1.720879 2.66587,3.093604"
   id="path819"
   inkscape:connector-curvature="0"
   style="fill:#1a3476;stroke-width:9.94727898" />
<path
   d="m 0,81.458276 20.043768,20.003974 c 0.477469,-1.2633 1.303094,-3.103547 2.357505,-3.521332 3.461653,-3.541232 9.231076,-3.541232 12.792202,0 3.163234,3.083652 3.163234,8.962502 0,12.453992 -1.322989,0.98478 -2.695713,1.73083 -3.939123,2.24809 l 19.944295,20.02387 c 1.402567,-0.91515 2.70566,-1.78056 3.610863,-2.65592 14.304187,-14.2843 14.304187,-37.889191 0,-52.083959 C 40.644584,63.612856 16.900428,63.612856 2.6459763,78.354724 1.7905103,78.832194 0.89525515,80.085551 0,81.458276"
   id="path821"
   inkscape:connector-curvature="0"
   style="fill:#1a3476;stroke-width:9.94727898" />
<polygon
   points="25.808,4.272 25.808,4.814 25.802,4.814 25.802,9.724 25.093,9.724 25.093,4.814 25.099,4.814 25.099,4.272 "
   id="polygon823"
   style="fill:#201612"
   transform="scale(9.9472794)" />
<polygon
   points="30.452,4.272 30.452,4.814 28.837,4.814 28.837,9.724 28.116,9.724 28.116,4.814 26.507,4.814 26.507,4.272 "
   id="polygon825"
   style="fill:#201612"
   transform="scale(9.9472794)" />
<polygon
   points="19.429,4.272 19.429,4.814 17.808,4.814 17.808,9.724 17.095,9.724 17.095,4.814 15.484,4.814 15.484,4.272 "
   id="polygon827"
   style="fill:#201612"
   transform="scale(9.9472794)" />
<path
   d="m 309.81796,42.494782 h 19.86472 c 8.45519,0 15.04029,3.690441 15.04029,13.757088 0,12.83199 -11.77758,14.721973 -15.67691,14.721973 l 16.59206,25.743559 h -8.25624 L 320.18303,67.014826 c 1.48214,0.338207 3.24281,0.566995 4.87417,0.566995 6.84373,0 12.62309,-3.431812 12.62309,-10.205909 0,-8.494977 -5.60031,-9.479757 -8.7536,-9.479757 h -12.00637 v 48.831194 h -7.10236 z"
   id="path829"
   inkscape:connector-curvature="0"
   style="fill:#201612;stroke-width:9.94727898" />
<path
   d="m 370.13827,42.494782 h 8.80334 L 400,96.717402 h -7.63951 l -8.47508,-22.868795 h -20.48145 l -9.55934,22.868795 h -7.98766 z m 12.16552,26.310554 -8.20651,-20.919128 -8.87297,20.919128 z"
   id="path831"
   inkscape:connector-curvature="0"
   style="fill:#201612;stroke-width:9.94727898" />
<path
   d="m 213.42883,42.494782 h 8.70387 l 20.96886,54.22262 h -7.59972 l -8.40545,-22.868795 h -20.54113 l -9.53944,22.868795 h -7.8882 z m 12.00636,26.310554 -8.11698,-20.919128 -8.88292,20.919128 z"
   id="path833"
   inkscape:connector-curvature="0"
   style="fill:#201612;stroke-width:9.94727898" />
</svg>