<?xml version="1.0" encoding="UTF-8" standalone="no"?>
<!DOCTYPE svg PUBLIC "-//W3C//DTD SVG 1.1//EN" "http://www.w3.org/Graphics/SVG/1.1/DTD/svg11.dtd">
<svg width="100%" height="100%" viewBox="0 0 400 400" version="1.1" xmlns="http://www.w3.org/2000/svg" xmlns:xlink="http://www.w3.org/1999/xlink" xml:space="preserve" xmlns:serif="http://www.serif.com/" style="fill-rule:evenodd;clip-rule:evenodd;stroke-linejoin:round;stroke-miterlimit:2;">
    <g transform="matrix(1.1801,0,0,1.1801,-126.902,279.852)">
        <g id="polygon823" transform="matrix(9.94728,0,0,9.94728,0,0)">
            <path d="M25.808,4.272L25.808,4.814L25.802,4.814L25.802,9.724L25.093,9.724L25.093,4.814L25.099,4.814L25.099,4.272L25.808,4.272Z" style="fill:rgb(32,22,18);fill-rule:nonzero;"/>
        </g>
        <g id="polygon825" transform="matrix(9.94728,0,0,9.94728,0,0)">
            <path d="M30.452,4.272L30.452,4.814L28.837,4.814L28.837,9.724L28.116,9.724L28.116,4.814L26.507,4.814L26.507,4.272L30.452,4.272Z" style="fill:rgb(32,22,18);fill-rule:nonzero;"/>
        </g>
        <g id="polygon827" transform="matrix(9.94728,0,0,9.94728,0,0)">
            <path d="M19.429,4.272L19.429,4.814L17.808,4.814L17.808,9.724L17.095,9.724L17.095,4.814L15.484,4.814L15.484,4.272L19.429,4.272Z" style="fill:rgb(32,22,18);fill-rule:nonzero;"/>
        </g>
        <path id="path829" d="M309.818,42.495L329.683,42.495C338.138,42.495 344.723,46.185 344.723,56.252C344.723,69.084 332.945,70.974 329.046,70.974L345.638,96.717L337.382,96.717L320.183,67.015C321.665,67.353 323.426,67.582 325.057,67.582C331.901,67.582 337.68,64.15 337.68,57.376C337.68,48.881 332.08,47.896 328.927,47.896L316.92,47.896L316.92,96.727L309.818,96.727L309.818,42.495Z" style="fill:rgb(32,22,18);fill-rule:nonzero;"/>
        <path id="path831" d="M370.138,42.495L378.942,42.495L400,96.717L392.36,96.717L383.885,73.849L363.404,73.849L353.845,96.717L345.857,96.717L370.138,42.495ZM382.304,68.805L374.097,47.886L365.224,68.805L382.304,68.805Z" style="fill:rgb(32,22,18);fill-rule:nonzero;"/>
        <path id="path833" d="M213.429,42.495L222.133,42.495L243.102,96.717L235.502,96.717L227.096,73.849L206.555,73.849L197.016,96.717L189.128,96.717L213.429,42.495ZM225.435,68.805L217.318,47.886L208.435,68.805L225.435,68.805Z" style="fill:rgb(32,22,18);fill-rule:nonzero;"/>
    </g>
    <g transform="matrix(2.25252,0,0,2.25252,50,6)">
        <path id="path815" d="M133.184,51.109L112.703,31.185C112.235,32.478 111.4,33.9 110.415,34.756C107.421,38.257 101.661,38.257 97.951,34.756C94.43,31.573 94.43,25.813 97.951,22.332C98.946,21.367 100.627,20.501 102.009,19.954L81.508,0C80.593,0.826 79.26,1.641 78.404,2.716C64.16,16.9 64.16,40.495 78.404,54.332C92.639,68.537 115.876,68.984 130.518,54.332C131.374,53.407 132.279,52.482 133.184,51.109" style="fill:rgb(26,52,118);fill-rule:nonzero;"/>
        <path id="path817" d="M0,51.109L20.044,31.185C20.521,32.478 21.347,33.9 22.401,34.756C25.863,38.257 31.632,38.257 35.193,34.756C38.357,31.573 38.357,25.813 35.193,22.332C33.87,21.367 32.498,20.511 31.254,19.954L51.199,0C52.601,0.826 53.904,1.641 54.81,2.716C69.114,16.9 69.114,40.495 54.81,54.332C40.645,68.537 16.9,68.984 2.646,54.332C1.791,53.795 0.895,52.482 0,51.109" style="fill:rgb(26,52,118);fill-rule:nonzero;"/>
        <path id="path819" d="M133.184,81.458L112.703,101.462C112.235,100.199 111.4,98.896 110.415,97.941C107.421,94.41 101.661,94.41 97.951,97.941C94.957,101.025 94.43,106.903 97.951,110.395C98.946,111.38 100.627,112.126 102.009,112.643L81.508,132.667C80.593,131.752 79.26,130.886 78.404,130.011C64.16,115.727 64.16,92.122 78.404,77.927C92.639,63.623 115.876,63.623 130.518,78.365C131.045,78.832 132.279,80.086 133.184,81.458" style="fill:rgb(26,52,118);fill-rule:nonzero;"/>
        <path id="path821" d="M0,81.458L20.044,101.462C20.521,100.199 21.347,98.359 22.401,97.941C25.863,94.4 31.632,94.4 35.193,97.941C38.357,101.025 38.357,106.903 35.193,110.395C33.87,111.38 32.498,112.126 31.254,112.643L51.199,132.667C52.601,131.752 53.904,130.886 54.81,130.011C69.114,115.727 69.114,92.122 54.81,77.927C40.645,63.613 16.9,63.613 2.646,78.355C1.791,78.832 0.895,80.086 0,81.458" style="fill:rgb(26,52,118);fill-rule:nonzero;"/>
    </g>
</svg>
